# xmcd
#
# Track frame offsets:
#	150
#	18147
#	44914
#	63601
#	88534
#	114448
#	134677
#	150147
#	179376
#	200735
#	218558
#	237691
#	266339
#	284600
#	304339
#	318183
#
# Disc length: 4395 seconds
#
# Revision: 1
# Processed by: cddbd v1.5.2PL0 Copyright (c) Steve Scherf et al.
# Submitted via: audiograbber 1.83.01
#
DISCID=eb112910
DTITLE=Rod Stewart - The Ultimate Collection CD2
DYEAR=2016
DGENRE=Pop
TTITLE0=Seems Like A Long Time (1971)
TTITLE1=Every Picture Tells A Story (1971)
TTITLE2=Reason To Believe (1971)
TTITLE3=Mandolin Wind (1971)
TTITLE4=Mafggie May (1971)
TTITLE5=You're My Girl (I Don't Want To Discuss It) (1970)
TTITLE6=Jo's Lament (1970)
TTITLE7=Cut Across Shorty (1970)
TTITLE8=Country Comfort (1970)
TTITLE9=My Way Of Giving (1970)
TTITLE10=Only A Hobo (1970)
TTITLE11=It's All Over Now (1970)
TTITLE12=Gasoline Alley (1970)
TTITLE13=Handbags and Gladrags (1969)
TTITLE14=An Old Raincoat Won't Ever Let You Down (1969)
TTITLE15=Man Of Constant Sorrow (1969)
EXTD=
EXTT0=
EXTT1=
EXTT2=
EXTT3=
EXTT4=
EXTT5=
EXTT6=
EXTT7=
EXTT8=
EXTT9=
EXTT10=
EXTT11=
EXTT12=
EXTT13=
EXTT14=
EXTT15=
PLAYORDER=
